# xmcd
#
# Track frame offsets:
#	150
#	19285
#	32767
#	43030
#	64527
#	86682
#	98205
#	115035
#	129330
#	149757
#	160717
#	167945
#	182397
#	198167
#	206792
#	218710
#
# Disc length: 3018
#
# Revision: 1
# Processed by: cddbd v1.5.1PL0 Copyright (c) Steve Scherf et al.
# Submitted via: CDex 1.51
# Normalized: r0:TDELIM( - )
#
DISCID=de0bc810
DTITLE=Various Artist - The Jazz Collection - I've Got Rhythm
DYEAR=1900
DGENRE=Jazz
TTITLE0=Jimmy Dorsey - I Got Rhythm
TTITLE1=Duke Ellington Orchestra - Sophisticated Lady
TTITLE2=Lena Horne - The Lady Is A Tramp
TTITLE3=Louis Armstrong - Nobody Knows The Trouble I've Seen
TTITLE4=Woody Herman - Northwest Passage
TTITLE5=Gloria Lynne - Who's Sorry Now
TTITLE6=Cab Calloway - I've Got You Under My Skin
TTITLE7=Scott Joplin - Maple Leaf Rag
TTITLE8=Duke Ellington Orchestra - Caravan
TTITLE9=The Mills Brothers - Limehouse Blues
TTITLE10=Ella Fitzgerald - Lemon Drop
TTITLE11=Erroll Garner - Stompin At The Savoy
TTITLE12=Doris Day and Les Brown's Orchestra - Beau Night In Hotchkiss Corners
TTITLE13=Nat King Cole - Yes Sir That's My Baby
TTITLE14=Fats Waller - Lulu's Back In Town
TTITLE15=Billie Holiday - Swing Brother Swing
EXTD=
EXTT0=
EXTT1=
EXTT2=
EXTT3=
EXTT4=
EXTT5=
EXTT6=
EXTT7=
EXTT8=
EXTT9=
EXTT10=
EXTT11=
EXTT12=
EXTT13=
EXTT14=
EXTT15=
PLAYORDER=
